<svg width="164" height="25" viewBox="0 0 164 25" fill="none" xmlns="http://www.w3.org/2000/svg">
<path d="M10.6712 5.16375C11.1993 3.53842 13.4987 3.53842 14.0268 5.16375L14.7255 7.31398C14.9617 8.04085 15.639 8.53298 16.4033 8.53298H18.6642C20.3732 8.53298 21.0837 10.7198 19.7011 11.7244L17.872 13.0533C17.2537 13.5025 16.995 14.2988 17.2312 15.0256L17.9298 17.1759C18.4579 18.8012 16.5977 20.1528 15.2151 19.1483L13.386 17.8193C12.7677 17.3701 11.9304 17.3701 11.3121 17.8193L9.48301 19.1483C8.10042 20.1528 6.24016 18.8012 6.76826 17.1759L7.46691 15.0256C7.70309 14.2988 7.44436 13.5025 6.82605 13.0533L4.99695 11.7244C3.61437 10.7198 4.32492 8.53298 6.0339 8.53298H8.29478C9.05906 8.53298 9.73641 8.04085 9.97258 7.31398L10.6712 5.16375Z" fill="#FF8A00"/>
<path d="M45.3694 5.16375C45.8975 3.53842 48.1969 3.53842 48.725 5.16375L49.4236 7.31398C49.6598 8.04085 50.3371 8.53298 51.1014 8.53298H53.3623C55.0713 8.53298 55.7818 10.7198 54.3992 11.7244L52.5702 13.0533C51.9518 13.5025 51.6931 14.2988 51.9293 15.0256L52.6279 17.1759C53.156 18.8012 51.2958 20.1528 49.9132 19.1483L48.0841 17.8193C47.4658 17.3701 46.6285 17.3701 46.0102 17.8193L44.1811 19.1483C42.7985 20.1528 40.9383 18.8012 41.4664 17.1759L42.165 15.0256C42.4012 14.2988 42.1425 13.5025 41.5242 13.0533L39.6951 11.7244C38.3125 10.7198 39.023 8.53298 40.732 8.53298H42.9929C43.7572 8.53298 44.4345 8.04085 44.6707 7.31398L45.3694 5.16375Z" fill="#FF8A00"/>
<path d="M80.0675 5.16375C80.5956 3.53842 82.895 3.53842 83.4231 5.16375L84.1217 7.31398C84.3579 8.04085 85.0353 8.53298 85.7995 8.53298H88.0604C89.7694 8.53298 90.48 10.7198 89.0974 11.7244L87.2683 13.0533C86.65 13.5025 86.3912 14.2988 86.6274 15.0256L87.3261 17.1759C87.8542 18.8012 85.9939 20.1528 84.6113 19.1483L82.7822 17.8193C82.1639 17.3701 81.3267 17.3701 80.7083 17.8193L78.8792 19.1483C77.4967 20.1528 75.6364 18.8012 76.1645 17.1759L76.8632 15.0256C77.0993 14.2988 76.8406 13.5025 76.2223 13.0533L74.3932 11.7244C73.0106 10.7198 73.7212 8.53298 75.4301 8.53298H77.691C78.4553 8.53298 79.1327 8.04085 79.3688 7.31398L80.0675 5.16375Z" fill="#FF8A00"/>
<path d="M114.765 5.16375C115.294 3.53842 117.593 3.53842 118.121 5.16375L118.82 7.31398C119.056 8.04085 119.733 8.53298 120.498 8.53298H122.758C124.467 8.53298 125.178 10.7198 123.795 11.7244L121.966 13.0533C121.348 13.5025 121.089 14.2988 121.325 15.0256L122.024 17.1759C122.552 18.8012 120.692 20.1528 119.309 19.1483L117.48 17.8193C116.862 17.3701 116.025 17.3701 115.406 17.8193L113.577 19.1483C112.195 20.1528 110.334 18.8012 110.862 17.1759L111.561 15.0256C111.797 14.2988 111.539 13.5025 110.92 13.0533L109.091 11.7244C107.709 10.7198 108.419 8.53298 110.128 8.53298H112.389C113.153 8.53298 113.831 8.04085 114.067 7.31398L114.765 5.16375Z" fill="#FF8A00"/>
<path d="M149.464 5.16375C149.992 3.53842 152.291 3.53842 152.819 5.16375L153.518 7.31398C153.754 8.04085 154.432 8.53298 155.196 8.53298H157.457C159.166 8.53298 159.876 10.7198 158.494 11.7244L156.665 13.0533C156.046 13.5025 155.787 14.2988 156.024 15.0256L156.722 17.1759C157.25 18.8012 155.39 20.1528 154.008 19.1483L152.178 17.8193C151.56 17.3701 150.723 17.3701 150.105 17.8193L148.275 19.1483C146.893 20.1528 145.033 18.8012 145.561 17.1759L146.259 15.0256C146.496 14.2988 146.237 13.5025 145.619 13.0533L143.789 11.7244C142.407 10.7198 143.117 8.53298 144.826 8.53298H147.087C147.852 8.53298 148.529 8.04085 148.765 7.31398L149.464 5.16375Z" fill="white"/>
</svg>
